<svg preserveAspectRatio="none" width="100%" height="100%" overflow="visible" style="display: block;" viewBox="0 0 103.037 35.0412" fill="none" xmlns="http://www.w3.org/2000/svg">
<g id="Group">
<path id="Vector" d="M1.53575 34.7391V21.8642H4.08265L9.62593 30.2839V21.8642H12.3601V34.7391H9.8132L4.26993 26.3195V34.7391H1.53575Z" fill="var(--fill-0, #DCDDD7)"/>
<path id="Vector_2" d="M14.8698 34.7391V21.8642H23.2222V24.2429H17.6789V27.0746H22.7353V29.4532H17.6789V32.4737H23.372V34.6636L14.8698 34.7391Z" fill="var(--fill-0, #DCDDD7)"/>
<path id="Vector_3" d="M28.6526 34.7391V24.1296H24.8323V21.8642H35.0573V24.2429H31.2744V34.7391H28.6526Z" fill="var(--fill-0, #DCDDD7)"/>
<path id="Vector_4" d="M36.7805 34.096V32.6235C37.9416 33.1899 39.2151 33.4542 40.4885 33.4542C41.3125 33.5297 42.1365 33.2654 42.7358 32.8878C43.2976 32.5102 43.5598 31.8684 43.5598 31.2265C43.5598 30.7735 43.3725 30.3204 42.998 29.9428C42.4362 29.4898 41.8369 29.1122 41.2002 28.9234L39.8518 28.3571C38.9529 28.0928 38.1289 27.5264 37.4173 26.8846C36.9678 26.4315 36.7056 25.7896 36.7056 25.0345C36.7056 24.0151 37.1551 23.109 37.8667 22.4671C38.878 21.8252 39.9642 21.4477 41.1253 21.561C41.762 21.561 42.2863 21.6365 42.9231 21.7497C43.4849 21.8252 44.0093 22.014 44.4587 22.3161V23.7886C43.4474 23.3355 42.2863 23.0712 41.2002 22.9579C39.29 22.9579 38.3162 23.5998 38.3162 24.8835C38.3162 25.3366 38.5034 25.7141 38.878 25.9784C39.4398 26.4315 40.0391 26.6958 40.6758 26.9978L42.0242 27.5642C42.9231 27.8285 43.822 28.3948 44.5711 29.1122C45.0205 29.6785 45.2827 30.3959 45.2827 31.2265C45.3576 32.246 44.9082 33.2276 44.1216 33.8695C43.1103 34.5868 41.9493 34.8889 40.7507 34.8889C40.3013 34.8889 39.8518 34.8889 39.4023 34.8134C38.9529 34.7379 38.5034 34.6246 38.054 34.5491C37.4173 34.4358 37.0427 34.2848 36.7805 34.096Z" fill="var(--fill-0, #DCDDD7)"/>
<path id="Vector_5" d="M47.3054 28.8869V21.8642H48.9534V28.8869C48.9534 30.4349 49.2155 31.6431 49.7774 32.3605C51.0508 33.7197 53.2232 33.9085 54.5715 32.6248C54.6465 32.5492 54.7588 32.436 54.8337 32.3605C55.3955 31.6431 55.6577 30.4349 55.6577 28.8869V21.8642H57.3057V29.0002C57.3057 31.1145 56.8563 32.5492 56.0323 33.5687C55.2083 34.5881 53.9348 35.0412 52.3243 35.0412C50.7137 35.0412 49.4403 34.5881 48.6163 33.5687C47.7548 32.5492 47.3054 31.0012 47.3054 28.8869Z" fill="var(--fill-0, #DCDDD7)"/>
<path id="Vector_6" d="M59.9643 34.7391V21.8642H61.6123V34.7391H59.9643Z" fill="var(--fill-0, #DCDDD7)"/>
<path id="Vector_7" d="M67.8676 34.7391V23.2235H63.8974V21.8642H73.5981V23.2235H69.5156V34.6258H67.8676V34.7391Z" fill="var(--fill-0, #DCDDD7)"/>
<path id="Vector_8" d="M75.7328 34.7391V21.8642H83.5982V23.2235H77.3433V27.4144H83.0364V28.7736H77.3433V33.1533H83.7855V34.5126H75.7328V34.7391Z" fill="var(--fill-0, #DCDDD7)"/>
<path id="Vector_9" d="M44.4211 8.76067H51.2004L47.6422 2.90846L41.0127 13.4424H37.9789L46.0316 0.831864C46.6684 -0.0742846 47.8295 -0.263066 48.7284 0.37879C48.9156 0.454302 49.1029 0.567571 49.1778 0.756352L57.2305 13.4424H54.1967L52.7734 11.1016H45.8818L44.4211 8.76067ZM75.5833 11.1016V0.114496H72.9989V12.1965C72.9989 12.574 73.1862 12.8383 73.3734 13.1026C73.6356 13.3669 73.8978 13.4802 74.2724 13.4802H85.8833L87.4189 11.1393L75.5833 11.1016ZM33.5218 9.10047C36.0313 9.10047 37.9789 7.13715 37.9789 4.60748C37.9789 2.07782 35.9938 0.114496 33.5218 0.114496H22.3229V13.4424H24.9073V2.45538H33.3345C34.4956 2.53089 35.3945 3.55031 35.3945 4.72075C35.3196 5.81568 34.4956 6.68408 33.3345 6.79734H26.1807L33.784 13.4802H37.4545L32.3607 9.10047H33.5218ZM6.70436 13.4424H14.3825C18.0531 13.4424 21.012 10.4597 21.012 6.75959C21.012 3.05948 18.0531 0.114496 14.3825 0.114496H6.70436C3.03382 0.114496 0 3.05948 0 6.75959C0 10.4597 3.03382 13.4424 6.70436 13.4424ZM14.1953 11.1016H6.77927C4.45709 11.026 2.58436 9.02496 2.65927 6.60856C2.73418 4.34319 4.532 2.56865 6.77927 2.45538H14.1953C16.5175 2.37987 18.5775 4.26768 18.6524 6.60856C18.7273 8.94945 16.8545 11.026 14.5324 11.1016C14.3825 11.1016 14.3076 11.1016 14.1953 11.1016ZM62.5491 13.4424H70.4145L71.9502 11.1016H62.7364C60.4142 11.1771 58.3542 9.28925 58.2793 6.94837C58.2044 4.60748 60.0771 2.53089 62.3993 2.45538C62.4742 2.45538 62.5865 2.45538 62.6615 2.45538H70.1524L71.688 0.114496H62.5491C58.8785 0.114496 55.9196 3.09724 55.9196 6.79734C55.9196 10.4975 58.8785 13.4424 62.5491 13.4424ZM93.7113 11.1016C91.8385 11.1016 90.1531 9.8556 89.5913 7.96779H100.491L102.026 5.6269H89.5913C90.1156 3.73909 91.8385 2.49314 93.7113 2.49314H101.202L102.738 0.152253H93.6364C89.9658 0.152253 87.0069 3.13499 87.0069 6.8351C87.0069 10.5352 89.9658 13.5179 93.6364 13.5179H101.502L103.037 11.1771L93.7113 11.1016Z" fill="var(--fill-0, #DCDDD7)"/>
</g>
</svg>
