<svg preserveAspectRatio="none" width="100%" height="100%" overflow="visible" style="display: block;" viewBox="0 0 60.2685 30.2624" fill="none" xmlns="http://www.w3.org/2000/svg">
<path id="Vector" fill-rule="evenodd" clip-rule="evenodd" d="M18.8014 0.626712C18.8014 0.280592 19.082 0 19.4281 0H24.4418C24.7879 0 25.0685 0.280592 25.0685 0.626712V3.71239L25.0682 3.75852C25.0682 3.75902 25.068 3.75944 25.0677 3.75969C25.0674 3.76002 25.067 3.76027 25.0665 3.76027C25.0655 3.76027 25.0647 3.76103 25.0647 3.76203V16.8952C25.0647 16.9416 25.0659 16.987 25.0682 17.0313V17.3273C25.0682 18.9888 25.4281 20.3688 26.0156 21.4909C26.2567 21.9516 25.9471 22.5624 25.427 22.5624H25.388C21.9616 22.5624 20.0545 20.622 20.0545 17.4495V4.38682C20.0545 4.04079 19.7739 3.76027 19.4279 3.76027C19.0819 3.76027 18.8014 3.47976 18.8014 3.13373V0.626712ZM53.3486 18.7614C51.6698 19.149 50.0718 18.3668 49.4088 17.5962C49.1831 17.3338 49.3772 16.9926 49.7145 16.9147L58.8141 14.8139C59.8259 14.5803 60.4533 13.5559 60.2197 12.5441C59.1498 7.90986 55.275 5.04955 50.3802 6.17963C45.9385 7.20502 43.0205 11.3833 44.1521 16.2849C45.2425 21.0083 49.4291 23.7028 54.2938 22.5797C56.6927 22.0258 58.9087 20.6802 59.933 18.3327C60.1005 17.9487 59.7992 17.5445 59.3803 17.5449L55.8722 17.5479C55.6989 17.548 55.5354 17.6221 55.4073 17.7387C54.8564 18.2407 54.1302 18.581 53.3486 18.7614ZM51.21 9.77412C49.4921 10.1708 48.5324 11.4423 48.3288 12.6932C48.2672 13.0717 48.6326 13.3418 49.0063 13.2555L54.6684 11.9483C55.038 11.863 55.2504 11.4665 55.0395 11.1513C54.2817 10.0186 52.8058 9.40578 51.21 9.77412ZM37.5463 20.8426C36.8908 21.8949 35.7469 22.9497 33.5061 22.9497C29.7203 22.9497 27.5796 20.5165 27.5796 17.1285V6.91339C27.5796 6.56728 27.8602 6.28668 28.2063 6.28668H31.9683C32.3145 6.28668 32.5951 6.56728 32.5951 6.91339V15.65C32.5951 17.3441 33.3978 18.5145 35.1128 18.5145C36.86 18.5145 37.595 17.1285 37.595 15.4036V6.91339C37.595 6.56728 37.8756 6.28668 38.2217 6.28668H41.9837C42.3298 6.28668 42.6104 6.56728 42.6104 6.91339V21.9226C42.6104 22.2688 42.3298 22.5494 41.9837 22.5494H38.4806C38.1344 22.5494 37.8538 22.2688 37.8538 21.9226V20.9282C37.8538 20.8369 37.7799 20.7629 37.6886 20.7629C37.6305 20.7629 37.5769 20.7933 37.5463 20.8426ZM8.77397 30.2624C14.7822 30.2624 17.5479 26.8102 17.5479 22.5181V6.9098C17.5479 6.56368 17.2673 6.28308 16.9212 6.28308H13.2473C12.9011 6.28308 12.6206 6.56368 12.6206 6.9098V7.9854C12.6206 8.0759 12.5472 8.14918 12.4567 8.14918C12.4004 8.14918 12.3483 8.12019 12.3168 8.07347C11.7616 7.25282 10.2166 5.87881 7.56592 5.87881C3.27435 5.87881 0 9.14448 0 14.4006C0 19.6879 3.33793 22.8914 7.6931 22.8914C10.288 22.8914 11.7422 21.511 12.3473 20.691C12.3797 20.6472 12.4303 20.6209 12.4847 20.6209C12.5773 20.6209 12.6523 20.696 12.6523 20.7885V22.5181C12.6523 25.0685 11.3489 26.3747 8.77397 26.3747C6.9154 26.3747 5.85575 25.685 5.45373 24.7009C5.33892 24.4199 5.0879 24.1976 4.78432 24.1976H1.45397C1.09541 24.1976 0.806729 24.499 0.864119 24.8529C1.33127 27.7337 3.92527 30.2624 8.77397 30.2624ZM8.53541 18.8006C10.7674 18.8006 12.5768 16.8367 12.5768 14.414C12.5768 11.9913 10.7674 10.0274 8.53541 10.0274C6.30347 10.0274 4.49409 11.9913 4.49409 14.414C4.49409 16.8367 6.30347 18.8006 8.53541 18.8006Z" fill="var(--fill-0, white)"/>
</svg>
