<svg preserveAspectRatio="none" width="100%" height="100%" overflow="visible" style="display: block;" viewBox="0 0 96.2549 17.6321" fill="none" xmlns="http://www.w3.org/2000/svg">
<g id="Frame 1000001389" opacity="0.7">
<path id="Vector" d="M13.0515 6.27473V6.14924C13.0515 4.5178 12.5495 3.13735 11.5456 2.19614C10.4161 1.12943 8.72192 0.564696 6.714 0.564696H0V17.5693H3.82761V12.0475H6.02377L9.28665 17.5693H13.6162L9.85138 11.2945C11.2946 10.6043 13.0515 9.22387 13.0515 6.27473ZM9.2239 6.33748C9.2239 7.90617 8.15719 8.84738 6.40026 8.84738H3.82761V3.89032H6.40026C8.21994 3.89032 9.2239 4.70604 9.2239 6.33748ZM66.8262 0.501949L60.426 17.5693H64.2536L65.5713 13.9299H71.5323L72.85 17.5693H76.8031L70.4028 0.501949H66.8262ZM70.3401 10.7298H66.7007L68.5204 5.52176L70.3401 10.7298ZM87.9094 8.91013L92.992 0.627445H88.7879L85.776 6.02374L82.8269 0.627445H78.4345L83.4544 8.97288L78.1836 17.6321H82.3876L85.5878 11.922L88.7879 17.6321H93.1175L87.9094 8.91013ZM20.895 14.3064V10.6671H27.7345V7.40419H20.895V3.89032H28.6129V0.564696H17.1301V17.5693H24.2833L26.0403 14.3064H20.895ZM53.5237 0.564696L49.6961 6.08649L45.8058 0.564696H45.743L41.8527 7.96892V17.5693H45.5548V7.0277L49.5706 12.2358V12.2985H49.7589L53.8375 7.0277V17.5693H57.5396V0.564696H53.5237Z" fill="var(--fill-0, white)"/>
<path id="Vector_2" d="M37.1466 0.564685L28.1737 17.5693H32.817L41.79 0.564685H37.1466Z" fill="var(--fill-0, white)"/>
</g>
</svg>
