<svg preserveAspectRatio="none" width="100%" height="100%" overflow="visible" style="display: block;" viewBox="0 0 82 46" fill="none" xmlns="http://www.w3.org/2000/svg">
<g id="sage_usa_logo.svg" clip-path="url(#clip0_0_190)">
<path id="Vector" d="M9.06163 0.000461578C14.192 0.000461578 18.3635 3.52944 18.4596 8.4411C18.5077 9.82381 17.5008 10.5874 16.3979 10.5874C15.343 10.5874 14.4322 9.82485 14.3842 8.53669C14.3361 5.7702 11.9872 3.71951 9.01361 3.71951C6.2322 3.71951 4.12349 5.67464 4.12349 8.34551C4.12349 11.2543 6.08916 12.5425 10.1646 14.0208C14.5273 15.5946 18.5077 17.4541 18.5077 22.986C18.5077 27.8032 14.7194 31.6656 9.44601 31.6656C4.26764 31.6656 0 28.0411 0 23.1294C0 20.0772 1.48625 17.931 2.92446 17.931C4.17154 17.931 4.93814 18.7413 4.93814 19.8383C4.93814 20.792 4.12349 21.221 4.12349 22.9382C4.12349 25.9904 6.61658 27.9455 9.44601 27.9455C12.4185 27.9455 14.3842 25.8948 14.3842 23.415C14.3842 20.3629 12.4185 19.0758 8.34308 17.6442C3.78824 16.0247 0 14.0685 0 8.68004C0 3.81618 3.93131 0.000461578 9.06163 0.000461578Z" fill="var(--fill-0, #DCDDD7)"/>
<path id="Vector_2" d="M29.9866 31.6692C24.8082 31.6692 20.4936 27.5201 20.4936 22.2739C20.4936 16.8376 24.8563 12.784 30.1308 12.784C35.7884 12.784 39.7677 16.981 39.7677 22.704V29.6663C39.7677 30.8589 38.809 31.6692 37.7063 31.6692C36.5553 31.6692 35.5962 30.8589 35.5962 29.6663V22.8463C35.5962 19.0784 33.4386 16.5031 30.0347 16.5031C27.0141 16.5031 24.6171 19.0306 24.6171 22.2739C24.6171 25.2782 26.9661 27.8535 29.9396 27.8535C31.0426 27.8535 31.522 27.5679 32.1936 27.5679C33.1044 27.5679 34.0632 28.3304 34.0632 29.4274C34.0622 30.9057 32.2875 31.6692 29.9866 31.6692Z" fill="var(--fill-0, #DCDDD7)"/>
<path id="Vector_3" d="M51.582 45.8808C46.2117 45.8808 41.7528 42.065 41.7528 37.1055C41.7528 35.4361 42.7116 34.6737 43.8146 34.6737C44.9174 34.6737 45.8282 35.3895 45.8764 36.7721C45.9243 39.872 48.4175 42.1606 51.5341 42.1606C54.843 42.1606 56.9996 40.0622 56.9996 37.3433C56.9996 34.2434 54.6026 32.9564 50.5272 31.6682C45.7803 30.1421 41.7528 28.0436 41.7528 22.2261C41.7528 16.8843 45.8764 12.784 51.2458 12.784C56.6634 12.784 61.1232 16.6942 61.1232 21.8448C61.1232 24.9925 59.8292 27.4245 58.0544 27.4245C56.8556 27.4245 56.0408 26.5664 56.0408 25.5172C56.0408 24.4202 56.9996 23.9433 56.9996 21.9882C56.9996 18.6971 54.4103 16.5041 51.2937 16.5041C48.2731 16.5041 45.8764 18.7938 45.8764 21.7981C45.8764 25.1837 48.3214 26.6153 52.3489 27.9502C56.9996 29.4762 61.1232 31.3836 61.1232 36.9633C61.1232 41.9704 57.1439 45.8808 51.582 45.8808Z" fill="var(--fill-0, #DCDDD7)"/>
<path id="Vector_4" d="M72.8906 31.6682C67.5199 31.6682 63.1093 27.4712 63.1093 22.2261C63.1093 16.9799 67.3769 12.784 72.6501 12.784C77.9729 12.784 82.0001 16.4563 82.0001 21.1301C82.0001 22.9419 80.7062 24.0389 78.5965 24.0389H73.0828C71.9797 24.0389 71.165 23.2764 71.165 22.2739C71.165 21.3202 71.9797 20.5567 73.0828 20.5567H77.2061C77.5895 20.5567 77.8778 20.3655 77.8778 19.9843C77.8778 18.6015 76.1033 16.4553 72.7954 16.4553C69.727 16.4553 67.2339 19.0784 67.2339 22.2261C67.2339 25.4216 69.7749 27.9491 72.9394 27.9491C76.5839 27.9491 77.7827 25.8029 79.2689 25.8029C80.5159 25.8029 81.1867 26.6131 81.1867 27.5201C81.1867 28.3782 80.611 29.1417 79.1728 30.0476C77.7325 30.9524 75.5759 31.6682 72.8906 31.6682Z" fill="var(--fill-0, #DCDDD7)"/>
</g>
<defs>
<clipPath id="clip0_0_190">
<rect width="82" height="46" fill="white"/>
</clipPath>
</defs>
</svg>
