<svg preserveAspectRatio="none" width="100%" height="100%" overflow="visible" style="display: block;" viewBox="0 0 125.581 18" fill="none" xmlns="http://www.w3.org/2000/svg">
<g id="Group">
<path id="Vector" d="M0.491143 5.52966H2.75796L3.28688 3.01271L6.64932 1.90678L5.89371 5.52966H8.68945L8.19831 7.85593H5.40257L4.26916 13.1568C4.1936 13.4237 4.11804 13.8814 4.11804 14.339C4.11804 15.0636 4.60919 15.5212 5.32701 15.5212C5.89371 15.5212 6.46042 15.4068 6.83822 15.2542L6.30929 17.6949C5.78037 17.8093 5.17589 17.9619 4.60919 17.9619C2.49349 17.9619 0.982285 17.1229 0.982285 14.7966C0.982285 13.8432 1.17119 12.928 1.39787 11.9746L2.26681 7.85593H0L0.491143 5.52966Z" fill="var(--fill-0, white)"/>
<g id="Group_2">
<path id="Vector_2" d="M81.643 15.8263H81.6052C80.5474 17.1992 79.4518 17.9619 77.7139 17.9619C75.5604 17.9619 74.0114 16.7415 74.0114 14.4915C74.0114 10.4873 78.4317 10.1822 81.3786 10.1822H82.4742C82.5497 9.83898 82.5497 9.49576 82.5497 9.15254C82.5497 7.9322 81.2274 7.58898 80.1318 7.58898C78.7717 7.58898 77.4116 7.9322 76.1649 8.54237L76.6183 6.02542C77.9406 5.5678 79.3006 5.30085 80.6985 5.30085C83.1164 5.30085 85.3833 6.17797 85.3833 9.03814C85.3833 10.678 84.1743 15.4449 83.9098 17.733H81.2652L81.643 15.8263ZM78.5828 15.6737C80.9252 15.6737 81.643 14.0339 82.1342 12.089H81.0385C79.5273 12.089 76.9961 12.3559 76.9961 14.4153C76.9961 15.2161 77.7894 15.6737 78.5828 15.6737Z" fill="var(--fill-0, white)"/>
<path id="Vector_3" d="M9.97397 5.52966H13.1097L10.5407 17.6568H7.40492L9.97397 5.52966ZM11.1074 0.305085H14.2431L13.6009 3.3178H10.4651L11.1074 0.305085Z" fill="var(--fill-0, white)"/>
<path id="Vector_4" d="M22.5548 8.31356C21.9503 7.89407 21.1191 7.70339 20.2502 7.70339C17.7567 7.70339 16.3588 10.0678 16.3588 12.3559C16.3588 13.9195 16.8878 15.5212 19.0034 15.5212C19.759 15.5212 20.7413 15.2924 21.5347 14.911L21.1947 17.428C20.2502 17.8856 19.1923 18 18.1723 18C15.0743 18 13.072 15.9025 13.072 12.7754C13.072 8.54237 15.8677 5.30085 20.1746 5.30085C21.3458 5.30085 22.4792 5.52966 23.3104 5.75847L22.5548 8.31356Z" fill="var(--fill-0, white)"/>
<path id="Vector_5" d="M25.9928 0H29.1285L27.0506 9.95339H27.0884L31.4709 5.52966H35.5134L29.7708 11.0593L33.3599 17.6949H29.8464L26.7484 11.25H26.7106L25.3505 17.6949H22.2903L25.9928 0Z" fill="var(--fill-0, white)"/>
<path id="Vector_6" d="M46.8097 5.52966H49.0765L49.6054 3.01271L52.9678 1.90678L52.2122 5.52966H55.008L54.5168 7.85593H51.7211L50.5877 13.1568C50.5121 13.4237 50.4366 13.8814 50.4366 14.339C50.4366 15.0636 50.9277 15.5212 51.6455 15.5212C52.2122 15.5212 52.7789 15.4068 53.1567 15.2542L52.6278 17.6949C52.0989 17.8093 51.4944 17.9619 50.9277 17.9619C48.812 17.9619 47.3008 17.1229 47.3008 14.7966C47.3008 13.8432 47.4897 12.928 47.7164 11.9746L48.5853 7.85593H46.3185L46.8097 5.52966Z" fill="var(--fill-0, white)"/>
<path id="Vector_7" d="M45.7518 9.87712C45.7518 6.78814 43.7873 5.26271 40.8404 5.26271C36.8735 5.26271 34.0022 8.88559 34.0022 12.661C34.0022 16.2839 36.3446 17.9619 39.7826 17.9619C41.0671 17.9619 42.3894 17.6568 43.5984 17.2754L44.0139 14.7585C42.8428 15.2924 41.596 15.6356 40.3115 15.6356C38.3091 15.6356 37.1379 14.911 36.9868 13.0042C36.9868 12.8898 36.9868 12.7754 36.9868 12.661C36.9868 12.6229 36.9868 12.6229 36.9868 12.5847V12.5466C36.9868 11.7076 37.1757 10.9068 37.478 10.1441C38.0824 8.58051 38.9136 7.51271 40.7648 7.51271C42.0872 7.51271 42.7672 8.23729 42.7672 9.5339C42.7672 9.80085 42.7294 10.0678 42.6916 10.3729H38.4225C38.158 11.3263 38.0824 11.9746 38.0824 12.5466H45.4496C45.6385 11.6695 45.7518 10.7924 45.7518 9.87712Z" fill="var(--fill-0, white)"/>
<path id="Vector_8" d="M56.3681 6.86441C56.4436 6.40678 56.557 5.91102 56.6325 5.52966H59.5416L59.2771 7.16949H59.3149C60.1461 5.91102 61.544 5.26271 63.0174 5.26271C64.453 5.26271 65.9265 6.10169 66.0776 7.58898H66.1154C66.9087 6.02542 68.6466 5.26271 70.3467 5.26271C72.1602 5.26271 73.6714 6.75 73.6714 8.58051C73.6714 9.64831 73.4069 10.9068 73.1425 11.8983L71.8957 17.6949H68.76L70.0067 11.7839C70.1578 11.0593 70.4223 9.91525 70.4223 9.19068C70.4223 8.31356 69.7423 7.74153 68.9489 7.74153C66.7576 7.74153 66.2287 10.2966 65.8509 11.9364L64.6042 17.6949H61.4684L62.7151 11.7839C62.8663 11.0593 63.1307 9.91525 63.1307 9.19068C63.1307 8.31356 62.4507 7.74153 61.6573 7.74153C59.5416 7.74153 58.9371 10.2966 58.5593 11.9364L57.3126 17.6949H54.1768L56.3681 6.86441Z" fill="var(--fill-0, white)"/>
<path id="Vector_9" d="M94.715 8.00847C94.375 7.8178 93.506 7.55085 92.6371 7.55085C91.6926 7.55085 90.5214 7.8178 90.5214 8.77119C90.5214 10.2966 94.6016 10.8686 94.6016 13.8432C94.6016 17.0085 91.8815 17.9619 89.1991 17.9619C87.9523 17.9619 86.6678 17.7712 85.5344 17.2373L86.2144 14.7203C87.0834 15.2161 87.9901 15.6737 89.1991 15.6737C90.2569 15.6737 91.3525 15.3305 91.3525 14.339C91.3525 12.3941 87.2723 12.2034 87.2723 9.15254C87.2723 6.29237 89.9925 5.30085 92.4859 5.30085C93.6194 5.30085 94.7905 5.52966 95.4328 5.6822L94.715 8.00847Z" fill="var(--fill-0, white)"/>
<path id="Vector_10" d="M96.7173 5.52966H98.9841L99.5131 3.01271L102.875 1.90678L102.12 5.52966H104.916L104.424 7.85593H101.629L100.495 13.1568C100.42 13.4237 100.344 13.8814 100.344 14.339C100.344 15.0636 100.835 15.5212 101.553 15.5212C102.12 15.5212 102.687 15.4068 103.064 15.2542L102.535 17.6949C102.007 17.8093 101.402 17.9619 100.835 17.9619C98.7197 17.9619 97.2085 17.1229 97.2085 14.7966C97.2085 13.8432 97.3974 12.928 97.5863 11.9746L98.493 7.85593H96.2262L96.7173 5.52966Z" fill="var(--fill-0, white)"/>
<path id="Vector_11" d="M117.95 7.16949C118.025 6.63559 118.139 6.10169 118.214 5.52966H121.199L120.783 7.8178H120.821C121.388 6.48305 122.937 5.26271 124.372 5.26271C124.788 5.26271 125.204 5.30085 125.581 5.37712L124.939 8.4661C124.599 8.3517 124.146 8.27542 123.73 8.27542C121.501 8.27542 120.443 10.2966 120.028 12.2415L118.894 17.6949H115.759L117.95 7.16949Z" fill="var(--fill-0, white)"/>
<path id="Vector_12" d="M115.796 9.87712C115.796 6.78814 113.832 5.26271 110.885 5.26271C106.956 5.26271 104.047 8.88559 104.047 12.661C104.047 16.2839 106.389 17.9619 109.827 17.9619C111.112 17.9619 112.434 17.6568 113.643 17.2754L114.058 14.7585C112.887 15.2924 111.641 15.6356 110.356 15.6356C108.354 15.6356 107.182 14.911 107.031 13.0042C107.031 12.8898 107.031 12.7754 107.031 12.661C107.031 12.6229 107.031 12.6229 107.031 12.5847V12.5466C107.031 11.7076 107.22 10.9068 107.522 10.1441C108.127 8.58051 108.958 7.51271 110.809 7.51271C112.132 7.51271 112.812 8.23729 112.812 9.5339C112.812 9.80085 112.774 10.0678 112.736 10.3729H108.467C108.203 11.3263 108.127 11.9746 108.127 12.5466H115.494C115.683 11.6695 115.796 10.7924 115.796 9.87712Z" fill="var(--fill-0, white)"/>
</g>
</g>
</svg>
