<svg preserveAspectRatio="none" width="100%" height="100%" overflow="visible" style="display: block;" viewBox="0 0 60.7364 60" fill="none" xmlns="http://www.w3.org/2000/svg">
<g id="Group">
<path id="Vector" d="M26.923 25.1478C24.6901 25.1478 22.7761 26.6159 22.2657 28.7861H31.6441C31.0699 26.6159 29.156 25.1478 26.923 25.1478Z" fill="var(--fill-0, #DCDDD7)"/>
<path id="Vector_2" d="M47.2746 25.0853C44.6589 25.0853 42.4897 27.1916 42.4897 29.8725C42.4897 32.4895 44.6589 34.6597 47.2746 34.6597C49.8904 34.6597 52.0595 32.5533 52.0595 29.8725C52.0595 27.1916 49.8904 25.0853 47.2746 25.0853ZM47.2746 31.5959C46.3176 31.5959 45.5521 30.8299 45.5521 29.8725C45.5521 28.9151 46.3176 28.1491 47.2746 28.1491C48.2316 28.1491 48.9972 28.9151 48.9972 29.8725C48.9972 30.7661 48.2316 31.5959 47.2746 31.5959Z" fill="var(--fill-0, #DCDDD7)"/>
<path id="Vector_3" d="M30.3681 0C13.5891 0 0 13.4043 0 30C0 46.5957 13.5891 60 30.3681 60C47.1471 60 60.7362 46.5957 60.7362 30C60.8 13.4043 47.1471 0 30.3681 0ZM19.3948 36.7021C19.1396 36.7021 18.8844 36.5745 18.693 36.383L13.5891 31.3404L8.4852 36.4468C8.29381 36.6383 8.03861 36.7021 7.78342 36.7021C7.20923 36.7021 6.82644 36.2553 6.82644 35.7447C6.82644 35.4894 6.95404 35.234 7.14544 35.0426L12.2493 29.9362L7.14544 24.8298C6.95404 24.6383 6.82644 24.383 6.82644 24.1277C6.82644 23.5532 7.27303 23.1702 7.78342 23.1702C8.03861 23.1702 8.29381 23.2979 8.4852 23.4255L13.5891 28.5319L18.693 23.4255C18.8844 23.234 19.1396 23.1064 19.3948 23.1064C19.9689 23.1064 20.4155 23.5532 20.4155 24.0638C20.4155 24.3191 20.2879 24.5745 20.0965 24.766L14.9927 29.8723L20.0965 34.9787C20.2879 35.1702 20.4155 35.4255 20.4155 35.6809C20.3517 36.2553 19.9051 36.7021 19.3948 36.7021ZM33.3028 30.0638C32.9838 30.5106 32.4097 30.7021 31.7079 30.766H22.1381V30.8298C22.2019 31.0851 22.2657 31.3404 22.3295 31.5957C22.9037 33.1277 24.4348 34.7872 26.923 34.7872C27.6886 34.7872 28.4541 34.5957 29.1559 34.2128C29.6663 33.9574 30.1129 33.5745 30.4957 33.1277C30.6233 33 30.6871 32.8723 30.8147 32.7447C31.0699 32.3617 31.3889 32.2979 31.6441 32.2979C31.8355 32.2979 32.0907 32.3617 32.2821 32.5532C32.4735 32.6809 32.601 32.9362 32.6648 33.1915C32.7286 33.5106 32.601 33.8298 32.4097 34.0213L32.3459 34.0851C31.7717 34.7872 31.1975 35.3617 30.6233 35.7447C29.9853 36.1277 29.2835 36.4468 28.5817 36.6383C28.0076 36.766 27.4972 36.8298 26.923 36.8298C26.6678 36.8298 26.4126 36.8298 26.0936 36.766C23.2865 36.4468 20.9897 34.4043 20.2879 31.6596C20.1603 31.1489 20.0965 30.5745 20.0965 30C20.0965 27.766 21.1811 25.6596 22.9675 24.383C24.1158 23.5532 25.5194 23.1064 26.923 23.1064C28.199 23.1064 29.4749 23.4894 30.5595 24.1277C32.1545 25.1489 33.1752 26.6808 33.558 28.5957C33.7494 29.1702 33.6218 29.6808 33.3028 30.0638ZM39.5551 25.2128C37.5773 25.4681 37.3859 26.4255 37.3859 28.6596V35.617C37.3859 36.1277 36.9393 36.5745 36.429 36.5745C35.9186 36.5745 35.472 36.1277 35.472 35.617V24.2553C35.472 23.6809 35.9186 23.2979 36.429 23.2979C36.8755 23.2979 37.2583 23.5532 37.3859 24C38.0877 23.4894 38.8533 23.234 39.6827 23.234H39.9379C40.5121 23.234 40.9587 23.6809 40.9587 24.1915C40.9587 24.7021 40.5121 25.1489 39.9379 25.1489C39.8741 25.1489 39.6827 25.1489 39.5551 25.2128ZM47.2747 36.6383C43.5106 36.6383 40.4483 33.5745 40.4483 29.8723C40.4483 26.1064 43.5106 23.1064 47.2747 23.1064C51.0388 23.1064 54.1012 26.1702 54.1012 29.8723C54.1012 33.5745 51.0388 36.6383 47.2747 36.6383Z" fill="var(--fill-0, #DCDDD7)"/>
</g>
</svg>
