<svg preserveAspectRatio="none" width="100%" height="100%" overflow="visible" style="display: block;" viewBox="0 0 118.75 20" fill="none" xmlns="http://www.w3.org/2000/svg">
<g id="logo 1" clip-path="url(#clip0_0_139)">
<path id="Vector" d="M27.1061 5.63245C24.662 5.63245 22.4387 6.46076 20.8303 7.96678C19.2851 9.41257 18.4336 11.3704 18.4336 13.4487C18.4336 17.3643 21.335 20 25.6712 20C28.1152 20 30.3386 19.1716 31.9468 17.6656C33.4922 16.2198 34.3436 14.262 34.3436 12.1837C34.3278 8.268 31.4266 5.63245 27.1061 5.63245ZM26.0338 15.9938C24.1416 15.9938 23.2902 14.5782 23.2902 13.1776C23.2902 11.2047 24.804 9.65353 26.7276 9.65353C28.3675 9.65353 29.5028 10.8282 29.5028 12.4999C29.5028 14.4126 27.9417 15.9938 26.0338 15.9938Z" fill="var(--fill-0, white)"/>
<path id="Vector_2" d="M45.3964 12.8163C45.2702 14.0062 44.7183 15.979 42.5581 15.979C41.9274 15.979 41.4543 15.8133 41.1548 15.482C40.7132 15.0152 40.5556 14.1868 40.6817 12.982L41.3597 6.8073C41.4071 6.35549 41.0443 5.97899 40.5713 5.97899H37.3547C36.9447 5.97899 36.6136 6.26513 36.5662 6.6567L35.7621 14.0212C35.5571 15.8887 35.6043 17.2742 36.4086 18.3585C37.1812 19.3977 38.5214 19.9549 40.2876 19.9549C42.1639 19.9549 43.7723 19.3374 44.7972 18.238L44.7342 18.7953C44.6868 19.232 45.0494 19.6235 45.5226 19.6235H48.7708C49.1807 19.6235 49.5119 19.3374 49.5592 18.9459L50.8837 6.79224C50.9311 6.35549 50.5683 5.96393 50.0953 5.96393H46.8471C46.4371 5.96393 46.1059 6.25007 46.0587 6.64164L45.3964 12.8163Z" fill="var(--fill-0, white)"/>
<path id="Vector_3" d="M53.1389 18.8404L54.2111 9.53309H52.7289C52.2559 9.53309 51.8933 9.14153 51.9405 8.70478L52.1613 6.67164C52.2085 6.29514 52.5396 5.99393 52.9496 5.99393H54.6053L55.1888 0.813209C55.236 0.436702 55.5671 0.135497 55.9771 0.135497H59.3515C59.8246 0.135497 60.1873 0.527064 60.1399 0.963811L59.5723 5.97888H61.3699C61.8429 5.97888 62.2055 6.37044 62.1583 6.80719L61.9375 8.84031C61.8903 9.21683 61.5591 9.51803 61.1491 9.51803H59.1781L58.295 18.9759C58.2635 19.3674 57.9166 19.6686 57.5066 19.6686H53.9273C53.4385 19.6686 53.0758 19.2921 53.1389 18.8404Z" fill="var(--fill-0, white)"/>
<path id="Vector_4" d="M73.9056 7.4398C73.0856 6.32534 71.5876 5.66269 69.8531 5.66269C65.6746 5.66269 62.2686 9.18679 62.2686 13.5091C62.2686 17.2591 64.8231 19.985 68.3551 19.985C70.0581 19.985 71.6665 19.3374 72.7072 18.2681L72.6441 18.8102C72.5969 19.2621 72.9595 19.6536 73.4325 19.6536H76.6807C77.0907 19.6536 77.4219 19.3675 77.4691 18.9759L78.8095 6.82232C78.8567 6.37052 78.4941 5.99401 78.0211 5.99401H74.7729C74.3629 5.99401 74.0317 6.28016 73.9844 6.67172L73.9056 7.4398ZM73.3537 12.485C73.3537 14.4126 71.7926 15.994 69.8847 15.994C68.2447 15.994 67.1095 14.8344 67.1095 13.1777C67.1095 11.235 68.6705 9.65365 70.5785 9.65365C72.2026 9.63859 73.3537 10.8133 73.3537 12.485Z" fill="var(--fill-0, white)"/>
<path id="Vector_5" d="M89.8317 5.66273C88.1129 5.66273 86.4888 6.31032 85.4323 7.40972L86.1734 0.843449C86.2207 0.391643 85.8581 0.0151367 85.3851 0.0151367H82.1526C81.7426 0.0151367 81.4114 0.301282 81.3642 0.692848L79.3616 18.8254C79.3143 19.2772 79.6769 19.6537 80.1499 19.6537H83.3982C83.8082 19.6537 84.1393 19.3675 84.1867 18.976L84.2654 18.2229C84.9593 19.1417 86.2996 19.985 88.3494 19.985C92.5279 19.985 95.9339 16.4609 95.9339 12.1386C95.9182 8.37357 93.3637 5.66273 89.8317 5.66273ZM91.0616 12.485C91.0616 14.4128 89.5006 15.994 87.5926 15.994C85.9684 15.994 84.8489 14.8344 84.8489 13.1778C84.8489 11.235 86.3942 9.65369 88.2863 9.65369C90.1943 9.63863 91.0616 11.1145 91.0616 12.485Z" fill="var(--fill-0, white)"/>
<path id="Vector_6" d="M97.605 19.6385H100.853C101.263 19.6385 101.594 19.3524 101.642 18.9609L103.644 0.828314C103.691 0.376506 103.329 0 102.856 0H99.6075C99.1976 0 98.8665 0.286145 98.8191 0.677711L96.8166 18.8102C96.7693 19.262 97.132 19.6385 97.605 19.6385Z" fill="var(--fill-0, white)"/>
<path id="Vector_7" d="M111.923 5.63245C109.463 5.63245 107.35 6.4457 105.837 7.98185C104.417 9.42763 103.629 11.4156 103.629 13.5842C103.629 17.6053 106.231 20 110.599 20C114.351 20 117.395 18.1173 118.167 15.3162C118.199 15.1806 118.104 15.0602 117.962 15.0602H113.989C113.721 15.0602 113.468 15.1806 113.326 15.3765C112.885 15.9788 111.986 16.5662 110.898 16.5662C110.031 16.5662 109.384 16.3553 108.959 15.9336C108.596 15.5722 108.407 15.0451 108.375 14.3523C108.375 14.1867 108.517 14.0361 108.691 14.0361H118.057C118.199 14.0361 118.325 13.9457 118.356 13.8101C118.483 13.3282 118.751 12.1987 118.751 11.521C118.751 7.99691 116.007 5.63245 111.923 5.63245ZM109.053 11.2047C108.832 11.2047 108.691 11.009 108.754 10.8132C109.132 9.5933 110.22 8.84028 111.655 8.84028C112.443 8.84028 113.074 9.08125 113.5 9.518C113.831 9.86437 114.004 10.3312 114.02 10.9035C114.02 11.0692 113.878 11.2047 113.705 11.2047H109.053Z" fill="var(--fill-0, white)"/>
<path id="Vector_8" d="M13.8761 13.4639C16.746 12.1536 18.512 9.51807 18.512 6.52109C18.512 4.74397 17.8655 3.11748 16.7145 1.92771C15.4688 0.66265 13.7343 0 11.716 0H3.76881C3.35883 0 3.02769 0.286145 2.98039 0.677711L2.34967 6.37049C2.80694 6.38554 3.26422 6.37049 3.70573 6.34036C4.58874 6.26506 5.45599 6.11446 6.29171 5.90361C6.57553 5.82831 6.85936 5.73795 7.12742 5.64759L7.41124 3.11747C7.42702 2.98192 7.60047 2.90662 7.71084 2.99699L12.8355 6.74699C12.9301 6.82229 12.9301 6.97289 12.8198 7.03314L6.89089 10.7831C6.76476 10.8584 6.59131 10.7681 6.60707 10.6175L6.82782 8.6747C5.78713 8.76506 4.74643 8.78013 3.72149 8.70481C2.66503 8.61446 1.65587 8.43374 0.678242 8.16265C0.552097 8.13252 0.44172 8.08735 0.315575 8.05722C0.110588 7.99699 -0.0628615 8.22289 0.0632837 8.38855L1.84508 10.6777L0.993605 18.8102C0.946301 19.262 1.30897 19.6385 1.78202 19.6385H5.28254C5.69252 19.6385 6.02364 19.3524 6.07096 18.9609L6.54399 14.5784C6.55977 14.4277 6.70168 14.3072 6.85936 14.3072H8.24696C8.35733 14.3072 8.46771 14.3675 8.53078 14.4729L11.2114 19.247C11.3533 19.488 11.6213 19.6385 11.9052 19.6385H16.0206C16.6199 19.6385 16.9983 19.0361 16.7145 18.5391L13.8761 13.4639Z" fill="var(--fill-0, white)"/>
</g>
<defs>
<clipPath id="clip0_0_139">
<rect width="118.75" height="20" fill="white"/>
</clipPath>
</defs>
</svg>
