<svg preserveAspectRatio="none" width="100%" height="100%" overflow="visible" style="display: block;" viewBox="0 0 80.833 22.2988" fill="none" xmlns="http://www.w3.org/2000/svg">
<g id="Universal_Logo_Prompt 1" opacity="0.7" clip-path="url(#clip0_0_4160)">
<g id="Group">
<path id="Vector" d="M80.8332 3.61418L77.2654 3.54914C77.1837 3.54669 77.1062 3.51267 77.0497 3.45443C76.9932 3.39619 76.9622 3.31841 76.9634 3.23788L76.982 0.30188C76.982 0.205872 76.934 0.16561 76.838 0.181095L74.1947 0.622425C74.1567 0.629029 74.1222 0.648544 74.0976 0.67748C74.0729 0.706415 74.0595 0.742887 74.0599 0.780375L74.0042 3.34473C73.998 3.57082 73.8819 3.69625 73.6558 3.72102L72.8196 3.81858C72.7038 3.83135 72.5971 3.88715 72.5205 3.97491C72.4439 4.06267 72.4031 4.176 72.4061 4.29243L72.4386 5.57461C72.4417 5.76043 72.5362 5.85954 72.722 5.87193C72.9822 5.89051 73.2454 5.86418 73.5118 5.79295C73.5826 5.77299 73.6572 5.77016 73.7294 5.78469C73.8016 5.79921 73.8693 5.83069 73.9269 5.87651C73.9845 5.92234 74.0304 5.9812 74.0608 6.04825C74.0912 6.1153 74.1053 6.18861 74.1018 6.26215C73.9996 8.66237 73.9934 10.8752 74.0832 12.9007C74.2411 16.3802 77.7671 16.0643 80.2525 15.4557C80.4786 15.4031 80.5839 15.2606 80.5684 15.0284L80.4708 13.5696C80.4523 13.2816 80.3036 13.1717 80.0249 13.2398C78.7195 13.5557 77.0238 13.9738 76.996 11.9112C76.9712 9.91977 76.9557 7.99031 76.9495 6.12279C76.9495 6.05212 76.9772 5.98428 77.0268 5.93388C77.0763 5.88349 77.1436 5.85456 77.2143 5.85334L80.8332 5.82082" stroke="var(--stroke-0, white)" stroke-width="0.929115"/>
<path id="Vector_2" d="M0 22.1547L2.6201 21.7737C2.72118 21.7602 2.8138 21.7097 2.88054 21.6318C2.94727 21.554 2.98352 21.4541 2.98246 21.351C2.92671 17.1483 2.93291 12.9363 3.00104 8.71503C3.02582 7.17889 3.66226 6.21725 4.91037 5.83012C8.664 4.65944 9.21217 8.99841 8.54786 11.507C8.30938 12.4052 7.68378 13.0555 6.67105 13.4582C6.61302 13.4817 6.54815 13.4817 6.49008 13.4583C6.43202 13.4349 6.38531 13.3899 6.35979 13.3327C6.22352 13.0292 6.24056 12.7334 6.41089 12.4454C6.47903 12.3308 6.45115 12.2503 6.32727 12.2039C6.20029 12.1574 6.0857 12.1744 5.9835 12.255C5.02341 13.0292 4.07727 13.7586 3.14505 14.443C3.00878 14.5421 3.00724 14.6443 3.14041 14.7496L5.8302 16.8727C6.13371 17.1111 6.28701 17.0368 6.29011 16.6497L6.29475 16.1526C6.29785 15.9606 6.39541 15.8568 6.58743 15.8413C9.44445 15.6137 11.535 13.5743 11.7626 10.7173C12.0924 6.57806 10.434 3.29828 5.83949 3.2797C5.05593 3.2766 4.24915 3.43455 3.41914 3.75355C3.2519 3.81859 3.10479 3.79072 2.97781 3.66993L2.7827 3.48411C2.68994 3.39455 2.56556 3.34314 2.43428 3.34009C1.59188 3.31532 0.780457 3.42836 0 3.67922" stroke="var(--stroke-0, white)" stroke-width="0.929115"/>
<path id="Vector_3" d="M17.3929 4.99856C17.1327 5.33614 16.9624 5.29433 16.8819 4.87313C16.8137 4.4922 16.7936 4.10816 16.8215 3.72103C16.8266 3.65125 16.8155 3.58123 16.7889 3.51652C16.7623 3.4518 16.721 3.39417 16.6682 3.3482C16.6155 3.30222 16.5527 3.26915 16.485 3.25162C16.4173 3.23408 16.3464 3.23257 16.278 3.24718L14.7542 3.56308C14.4228 3.63431 14.2571 3.83872 14.2571 4.1763V15.2467C14.2571 15.4418 14.3547 15.5394 14.5498 15.5394H16.8122C17.0011 15.5363 17.0956 15.4418 17.0956 15.256C17.0863 13.3389 17.0754 11.3289 17.0631 9.22604C17.0491 7.27025 19.1303 5.91839 20.8631 6.02988C21.1852 6.04846 21.3494 5.89671 21.3556 5.57461L21.3834 3.98583C21.3896 3.65754 21.2286 3.47791 20.9003 3.44694C19.4602 3.31687 18.291 3.83407 17.3929 4.99856Z" stroke="var(--stroke-0, white)" stroke-width="0.929115"/>
<path id="Vector_4" d="M34.836 8.78484C34.8585 7.35334 34.3114 5.97154 33.315 4.94342C32.3187 3.9153 30.9548 3.32508 29.5233 3.3026L28.4828 3.28624C27.0513 3.26375 25.6695 3.81085 24.6414 4.80717C23.6132 5.80349 23.023 7.16742 23.0005 8.59892L22.9738 10.299C22.9513 11.7305 23.4984 13.1123 24.4948 14.1404C25.4911 15.1686 26.855 15.7588 28.2865 15.7813L29.327 15.7976C30.7585 15.8201 32.1403 15.273 33.1684 14.2767C34.1966 13.2804 34.7868 11.9164 34.8093 10.4849L34.836 8.78484Z" stroke="var(--stroke-0, white)" stroke-width="0.929115"/>
<path id="Vector_5" d="M40.37 4.55263C40.2616 4.30797 40.2213 4.04472 40.2492 3.76289C40.2864 3.37575 40.1129 3.21471 39.7289 3.27975L38.0844 3.55848C37.7901 3.60803 37.643 3.78147 37.643 4.07878L37.6291 15.2746C37.6291 15.4697 37.7266 15.5657 37.9218 15.5626L40.212 15.5441C40.4474 15.541 40.5651 15.4217 40.5651 15.1864L40.5697 7.30281C40.5697 7.10151 40.6518 6.94046 40.816 6.81967C42.1492 5.83946 45.2385 4.66413 45.2804 7.55832C45.3175 10.1041 45.333 12.622 45.3268 15.112C45.3237 15.3753 45.4538 15.5069 45.717 15.5069L47.8122 15.5255C48.0754 15.5286 48.2071 15.3985 48.2071 15.1353L48.221 7.30746C48.221 7.18264 48.2551 7.06006 48.3198 6.95285C48.3844 6.84564 48.4771 6.75785 48.588 6.69889C49.4892 6.21575 50.9247 5.43994 51.9421 5.82087C52.577 6.05625 52.9022 6.55797 52.9177 7.32604C52.961 9.7882 52.9812 12.4238 52.9781 15.2328C52.9781 15.4651 53.0942 15.5781 53.3265 15.5719L55.4216 15.5255C55.6849 15.5224 55.8165 15.3877 55.8165 15.1213C55.8227 12.2658 55.8103 9.53888 55.7793 6.94046C55.7639 5.4229 55.1026 4.32035 53.7957 3.63281C51.9049 2.63866 49.61 3.7954 47.9794 4.94286C47.8153 5.05745 47.6821 5.03113 47.5799 4.86389C46.0144 2.31347 42.7532 3.21006 40.7277 4.65484C40.5666 4.76943 40.4474 4.73536 40.37 4.55263Z" stroke="var(--stroke-0, white)" stroke-width="0.929115"/>
<path id="Vector_6" d="M62.0325 3.55388C61.9923 3.45477 61.9226 3.38354 61.8235 3.34018C61.65 3.25966 61.4673 3.24108 61.2753 3.28444C60.6961 3.40832 60.1309 3.50588 59.5797 3.57711C59.4937 3.58836 59.4148 3.63083 59.3576 3.69662C59.3003 3.76241 59.2687 3.84705 59.2684 3.93482L59.1987 21.9782C59.1987 22.1703 59.2932 22.2477 59.4821 22.2105L61.8978 21.7274C61.979 21.7104 62.0518 21.666 62.1043 21.6018C62.1567 21.5375 62.1855 21.4572 62.1858 21.3743L62.1533 15.6835C62.1534 15.6332 62.1658 15.5837 62.1895 15.5394C62.2132 15.495 62.2474 15.4572 62.2892 15.4292C62.331 15.4012 62.379 15.3839 62.429 15.3788C62.479 15.3737 62.5295 15.3811 62.5761 15.4001C64.1525 16.0288 65.8713 16.018 67.7326 15.3676C70.9102 14.2619 71.5188 10.2714 70.7708 7.33538C69.8185 3.58175 65.8605 2.51792 62.4878 3.75364C62.271 3.83416 62.1192 3.76758 62.0325 3.55388Z" stroke="var(--stroke-0, white)" stroke-width="0.929115"/>
<path id="Vector_7" d="M28.9536 13.5882C29.763 13.5811 30.5356 13.1514 31.1014 12.3937C31.6672 11.6361 31.9798 10.6124 31.9705 9.5479C31.9612 8.48342 31.6308 7.46534 31.0519 6.71763C30.4729 5.96992 29.6929 5.55382 28.8835 5.56088C28.0741 5.56795 27.3015 5.99759 26.7357 6.75529C26.1699 7.51298 25.8572 8.53666 25.8665 9.60114C25.8758 10.6656 26.2063 11.6837 26.7852 12.4314C27.3641 13.1791 28.1441 13.5952 28.9536 13.5882Z" stroke="var(--stroke-0, white)" stroke-width="0.929115"/>
<path id="Vector_8" d="M67.9836 8.42502C67.9879 8.07609 67.9233 7.72973 67.7938 7.40573C67.6642 7.08172 67.472 6.78642 67.2283 6.53667C66.9846 6.28692 66.6941 6.08762 66.3733 5.95015C66.0526 5.81268 65.7079 5.73973 65.359 5.73547L64.9409 5.73036C64.592 5.72609 64.2456 5.7906 63.9216 5.92019C63.5976 6.04978 63.3023 6.24192 63.0526 6.48563C62.8028 6.72935 62.6035 7.01987 62.466 7.34062C62.3286 7.66136 62.2556 8.00603 62.2514 8.35497L62.2223 10.7333C62.2181 11.0823 62.2826 11.4286 62.4122 11.7526C62.5417 12.0766 62.7339 12.3719 62.9776 12.6217C63.2213 12.8714 63.5118 13.0707 63.8326 13.2082C64.1533 13.3457 64.498 13.4186 64.8469 13.4229L65.265 13.428C65.6139 13.4322 65.9603 13.3677 66.2843 13.2382C66.6083 13.1086 66.9036 12.9164 67.1533 12.6727C67.4031 12.429 67.6024 12.1385 67.7399 11.8177C67.8773 11.497 67.9503 11.1523 67.9546 10.8034L67.9836 8.42502Z" stroke="var(--stroke-0, white)" stroke-width="0.929115"/>
</g>
<g id="Vector_9">
</g>
<path id="Vector_10" d="M80.8332 3.61417V5.82082L77.2143 5.85334C77.1436 5.85455 77.0763 5.88348 77.0268 5.93388C76.9772 5.98428 76.9495 6.05212 76.9495 6.12278C76.9557 7.9903 76.9712 9.91976 76.996 11.9112C77.0238 13.9738 78.7195 13.5557 80.0249 13.2398C80.3036 13.1717 80.4523 13.2816 80.4708 13.5696L80.5684 15.0283C80.5839 15.2606 80.4786 15.4031 80.2525 15.4557C77.7671 16.0643 74.2411 16.3802 74.0832 12.9007C73.9934 10.8752 73.9996 8.66236 74.1018 6.26215C74.1053 6.18861 74.0912 6.11529 74.0608 6.04824C74.0304 5.98119 73.9845 5.92233 73.9269 5.87651C73.8693 5.83068 73.8016 5.79921 73.7294 5.78468C73.6572 5.77015 73.5826 5.77298 73.5118 5.79294C73.2454 5.86418 72.9822 5.8905 72.722 5.87192C72.5362 5.85953 72.4417 5.76042 72.4386 5.5746L72.4061 4.29242C72.4031 4.17599 72.4439 4.06266 72.5205 3.9749C72.5971 3.88714 72.7038 3.83135 72.8196 3.81857L73.6558 3.72102C73.8819 3.69624 73.998 3.57081 74.0042 3.34473L74.0599 0.780368C74.0595 0.74288 74.0729 0.706409 74.0976 0.677473C74.1222 0.648537 74.1567 0.629023 74.1947 0.622419L76.838 0.181089C76.934 0.165604 76.982 0.205865 76.982 0.301874L76.9634 3.23788C76.9622 3.3184 76.9932 3.39618 77.0497 3.45442C77.1062 3.51266 77.1837 3.54668 77.2654 3.54913L80.8332 3.61417Z" fill="var(--fill-0, white)"/>
<path id="Vector_11" d="M0 22.1547V3.67922C0.780457 3.42835 1.59188 3.31531 2.43428 3.34009C2.56556 3.34313 2.68994 3.39455 2.7827 3.4841L2.97781 3.66992C3.10479 3.79071 3.2519 3.81858 3.41914 3.75354C4.24915 3.43455 5.05593 3.2766 5.83949 3.2797C10.434 3.29828 12.0924 6.57805 11.7626 10.7173C11.535 13.5743 9.44445 15.6137 6.58743 15.8413C6.39541 15.8568 6.29785 15.9606 6.29475 16.1526L6.29011 16.6497C6.28701 17.0368 6.13371 17.1111 5.8302 16.8726L3.14041 14.7496C3.00724 14.6443 3.00878 14.5421 3.14505 14.443C4.07727 13.7586 5.02341 13.0292 5.9835 12.2549C6.0857 12.1744 6.20029 12.1574 6.32727 12.2038C6.45115 12.2503 6.47903 12.3308 6.41089 12.4454C6.24056 12.7334 6.22352 13.0292 6.35979 13.3327C6.38531 13.3899 6.43202 13.4349 6.49008 13.4583C6.54815 13.4817 6.61302 13.4816 6.67105 13.4582C7.68378 13.0555 8.30938 12.4052 8.54786 11.507C9.21217 8.9984 8.664 4.65943 4.91037 5.83012C3.66226 6.21725 3.02582 7.17888 3.00104 8.71502C2.93291 12.9363 2.92671 17.1483 2.98246 21.351C2.98352 21.4541 2.94727 21.554 2.88054 21.6318C2.8138 21.7097 2.72118 21.7602 2.6201 21.7737L0 22.1547Z" fill="var(--fill-0, white)"/>
<path id="Vector_12" d="M17.3929 4.99856C18.291 3.83407 19.4602 3.31686 20.9003 3.44694C21.2286 3.47791 21.3896 3.65753 21.3834 3.98582L21.3556 5.57461C21.3494 5.8967 21.1852 6.04846 20.8631 6.02987C19.1303 5.91838 17.0491 7.27024 17.0631 9.22603C17.0754 11.3289 17.0863 13.3389 17.0956 15.256C17.0956 15.4418 17.0011 15.5363 16.8122 15.5394H14.5498C14.3547 15.5394 14.2571 15.4418 14.2571 15.2467V4.17629C14.2571 3.83871 14.4228 3.63431 14.7542 3.56307L16.278 3.24718C16.3464 3.23256 16.4173 3.23408 16.485 3.25161C16.5527 3.26914 16.6155 3.30221 16.6682 3.34819C16.721 3.39417 16.7623 3.4518 16.7889 3.51651C16.8155 3.58122 16.8266 3.65124 16.8215 3.72102C16.7936 4.10816 16.8137 4.49219 16.8819 4.87313C16.9624 5.29433 17.1327 5.33614 17.3929 4.99856Z" fill="var(--fill-0, white)"/>
<path id="Vector_13" d="M34.8093 10.4849C34.7868 11.9164 34.1966 13.2804 33.1684 14.2767C32.1403 15.273 30.7585 15.8201 29.327 15.7976L28.2865 15.7813C26.855 15.7588 25.4911 15.1686 24.4948 14.1404C23.4984 13.1123 22.9513 11.7305 22.9738 10.299L23.0005 8.59892C23.023 7.16741 23.6132 5.80348 24.6414 4.80716C25.6695 3.81084 27.0513 3.26375 28.4828 3.28624L29.5233 3.30259C30.9548 3.32507 32.3187 3.91529 33.315 4.94341C34.3114 5.97153 34.8585 7.35333 34.836 8.78483L34.8093 10.4849ZM28.9539 13.5881C29.7633 13.581 30.5359 13.1514 31.1017 12.3937C31.6675 11.636 31.9801 10.6123 31.9708 9.54782C31.9616 8.48334 31.6311 7.46526 31.0522 6.71755C30.4732 5.96984 29.6933 5.55375 28.8838 5.5608C28.0744 5.56788 27.3018 5.99752 26.736 6.75521C26.1702 7.5129 25.8575 8.53659 25.8668 9.60106C25.8761 10.6655 26.2066 11.6836 26.7855 12.4313C27.3644 13.179 28.1444 13.5951 28.9539 13.5881Z" fill="var(--fill-0, white)"/>
<path id="Vector_14" d="M40.7277 4.65483C42.7532 3.21006 46.0144 2.31346 47.5799 4.86388C47.6821 5.03112 47.8153 5.05745 47.9794 4.94286C49.61 3.7954 51.9049 2.63865 53.7957 3.6328C55.1026 4.32035 55.7639 5.4229 55.7793 6.94045C55.8103 9.53888 55.8227 12.2658 55.8165 15.1213C55.8165 15.3877 55.6849 15.5224 55.4216 15.5255L53.3265 15.5719C53.0942 15.5781 52.9781 15.4651 52.9781 15.2328C52.9812 12.4238 52.961 9.78819 52.9177 7.32604C52.9022 6.55797 52.577 6.05624 51.9421 5.82087C50.9247 5.43993 49.4892 6.21574 48.588 6.69888C48.4771 6.75785 48.3844 6.84564 48.3198 6.95284C48.2551 7.06005 48.221 7.18263 48.221 7.30745L48.2071 15.1352C48.2071 15.3985 48.0754 15.5286 47.8122 15.5255L45.717 15.5069C45.4538 15.5069 45.3237 15.3753 45.3268 15.112C45.333 12.622 45.3175 10.1041 45.2804 7.55831C45.2385 4.66412 42.1492 5.83945 40.816 6.81967C40.6518 6.94045 40.5697 7.1015 40.5697 7.30281L40.5651 15.1863C40.5651 15.4217 40.4474 15.541 40.212 15.5441L37.9218 15.5626C37.7266 15.5657 37.6291 15.4697 37.6291 15.2746L37.643 4.07878C37.643 3.78146 37.7901 3.60803 38.0844 3.55847L39.7289 3.27974C40.1129 3.2147 40.2864 3.37575 40.2492 3.76288C40.2213 4.04471 40.2616 4.30796 40.37 4.55263C40.4474 4.73535 40.5666 4.76942 40.7277 4.65483Z" fill="var(--fill-0, white)"/>
<path id="Vector_15" d="M62.4878 3.75363C65.8605 2.51791 69.8185 3.58175 70.7708 7.33537C71.5188 10.2714 70.9102 14.2619 67.7326 15.3676C65.8713 16.018 64.1525 16.0288 62.5761 15.4001C62.5295 15.381 62.479 15.3737 62.429 15.3788C62.379 15.3839 62.331 15.4012 62.2892 15.4292C62.2474 15.4572 62.2132 15.495 62.1895 15.5394C62.1658 15.5837 62.1534 15.6332 62.1533 15.6835L62.1858 21.3743C62.1855 21.4572 62.1567 21.5375 62.1043 21.6018C62.0518 21.666 61.979 21.7104 61.8978 21.7274L59.4821 22.2105C59.2932 22.2477 59.1987 22.1702 59.1987 21.9782L59.2684 3.93481C59.2687 3.84704 59.3003 3.7624 59.3576 3.69661C59.4148 3.63082 59.4937 3.58836 59.5797 3.5771C60.1309 3.50587 60.6961 3.40831 61.2753 3.28443C61.4673 3.24107 61.65 3.25965 61.8235 3.34018C61.9226 3.38354 61.9923 3.45477 62.0325 3.55387C62.1192 3.76757 62.271 3.83416 62.4878 3.75363ZM67.9839 8.42504C67.9881 8.0761 67.9236 7.72975 67.794 7.40574C67.6645 7.08174 67.4723 6.78643 67.2286 6.53668C66.9849 6.28693 66.6944 6.08763 66.3736 5.95016C66.0529 5.81269 65.7082 5.73975 65.3593 5.73548L64.9412 5.73037C64.5923 5.72611 64.2459 5.79061 63.9219 5.9202C63.5979 6.04979 63.3026 6.24193 63.0529 6.48565C62.8031 6.72937 62.6038 7.01989 62.4663 7.34063C62.3289 7.66137 62.2559 8.00605 62.2517 8.35498L62.2226 10.7333C62.2184 11.0823 62.2829 11.4286 62.4124 11.7526C62.542 12.0766 62.7342 12.3719 62.9779 12.6217C63.2216 12.8714 63.5121 13.0707 63.8329 13.2082C64.1536 13.3457 64.4983 13.4186 64.8472 13.4229L65.2653 13.428C65.6142 13.4323 65.9606 13.3678 66.2846 13.2382C66.6086 13.1086 66.9039 12.9164 67.1536 12.6727C67.4034 12.429 67.6027 12.1385 67.7402 11.8177C67.8776 11.497 67.9506 11.1523 67.9548 10.8034L67.9839 8.42504Z" fill="var(--fill-0, white)"/>
</g>
<defs>
<clipPath id="clip0_0_4160">
<rect width="80.833" height="22.2988" fill="white"/>
</clipPath>
</defs>
</svg>
