<svg preserveAspectRatio="none" width="100%" height="100%" overflow="visible" style="display: block;" viewBox="0 0 60.7366 60" fill="none" xmlns="http://www.w3.org/2000/svg">
<g id="Group">
<path id="Vector" d="M30.3683 60C47.1403 60 60.7366 46.5685 60.7366 30C60.7366 13.4315 47.1403 0 30.3683 0C13.5964 0 0 13.4315 0 30C0 46.5685 13.5964 60 30.3683 60Z" fill="var(--fill-0, #DCDDD7)"/>
<path id="Vector_2" d="M8.43101 30.0015C8.43101 36.444 13.7177 41.6689 20.2418 41.6689H21.929V37.3328H20.2418C16.1483 37.3328 12.8179 34.0443 12.8179 30.0015C12.8179 25.9565 16.1483 22.6681 20.2418 22.6681H24.2956V45.3346C24.2956 47.7276 26.2585 49.6663 28.6824 49.6663V18.3341H20.2418C13.7177 18.3341 8.43101 23.5569 8.43101 30.0015ZM40.4932 18.3341H38.8059V22.6703H40.4932C44.5867 22.6703 47.9171 25.9587 47.9171 30.0015C47.9171 34.0465 44.5867 37.335 40.4932 37.335H36.4394V14.6685C36.4394 12.2755 34.4764 10.3368 32.0503 10.3368V41.6689H40.4932C47.015 41.6689 52.304 36.4462 52.304 30.0015C52.304 23.5613 47.015 18.3341 40.4932 18.3341Z" fill="var(--fill-0, #002B31)"/>
</g>
</svg>
