<svg preserveAspectRatio="none" width="100%" height="100%" overflow="visible" style="display: block;" viewBox="0 0 138 15" fill="none" xmlns="http://www.w3.org/2000/svg">
<g id="garmentory-logo-black-31374f1286ae9b0b72d058c5ce9714d3 2" opacity="0.7" clip-path="url(#clip0_0_1047)">
<path id="Vector" d="M10.0155 13.685C9.02089 14.8175 7.27397 14.78 5.83397 14.7725C3.02089 14.76 0.927812 12.6825 0.327812 9.76996C0.175504 9.02329 0.120119 8.10246 0.161658 7.00746C0.313966 3.04996 3.07627 0.387461 6.67627 0.232461C9.54012 0.112461 12.2886 1.16746 13.3432 4.31996C13.3483 4.33489 13.3507 4.35077 13.3501 4.36669C13.3495 4.3826 13.3459 4.39823 13.3397 4.41265C13.3335 4.42708 13.3247 4.44002 13.3138 4.45072C13.3029 4.46142 13.2901 4.46966 13.2763 4.47496L10.0847 5.70996C9.99858 5.74329 9.93473 5.71496 9.8932 5.62496C9.80781 5.44496 9.77781 5.19746 9.6855 5.02246C8.8932 3.51079 7.71781 2.97163 6.15935 3.40496C4.06397 3.98496 3.51012 6.64246 3.83781 8.73496C4.20012 11.07 5.83397 12.4075 8.02397 11.795C8.87935 11.555 9.46935 10.9741 9.79397 10.0525C9.8355 9.93413 9.79781 9.87496 9.68089 9.87496H6.40166C6.32473 9.87496 6.28627 9.83246 6.28627 9.74746L6.29089 7.18746C6.29089 7.10413 6.32858 7.06246 6.40397 7.06246H13.154C13.2309 7.06246 13.2694 7.10413 13.2694 7.18746V14.25C13.2694 14.375 13.2117 14.4375 13.0963 14.4375L10.274 14.4425C10.2438 14.4425 10.2148 14.4294 10.1932 14.406C10.1716 14.3826 10.1592 14.3508 10.1586 14.3175L10.1493 13.74C10.1463 13.605 10.1017 13.5866 10.0155 13.685Z" fill="var(--fill-0, white)"/>
<path id="Vector_2" d="M112.091 8.2062C112.084 9.06993 111.92 9.92373 111.608 10.7188C111.297 11.5139 110.844 12.2348 110.275 12.8402C109.706 13.4456 109.033 13.9238 108.294 14.2473C107.555 14.5709 106.764 14.7336 105.967 14.726L104.102 14.7084C102.492 14.6932 100.953 13.9856 99.8245 12.7414C98.6958 11.4972 98.0697 9.81816 98.0837 8.07377L98.0937 6.8338C98.1006 5.97006 98.2646 5.11627 98.5761 4.32116C98.8877 3.52606 99.3407 2.80521 99.9094 2.19979C100.478 1.59437 101.151 1.11622 101.891 0.792644C102.63 0.469071 103.421 0.306409 104.218 0.313947L106.083 0.331597C107.693 0.34682 109.231 1.05438 110.36 2.29861C111.489 3.54284 112.115 5.22183 112.101 6.96622L112.091 8.2062ZM103.484 3.7C101.702 4.7375 101.467 7.4875 102.044 9.3875C102.648 11.3725 104.527 12.2125 106.295 11.52C108.295 10.74 108.718 8.0175 108.27 6.065C107.915 4.51666 107.065 3.60333 105.72 3.325C104.935 3.16333 104.19 3.28833 103.484 3.7Z" fill="var(--fill-0, white)"/>
<path id="Vector_3" d="M18.7731 11.63L17.9493 14.3725C17.9435 14.3907 17.9326 14.4066 17.9182 14.4178C17.9037 14.429 17.8863 14.435 17.8685 14.435L14.4462 14.445C14.4323 14.4451 14.4187 14.4416 14.4063 14.4348C14.394 14.4279 14.3834 14.4179 14.3754 14.4056C14.3675 14.3932 14.3624 14.379 14.3607 14.3641C14.3589 14.3492 14.3606 14.3341 14.3654 14.32L18.9347 0.620001C18.9408 0.602232 18.9519 0.586943 18.9663 0.57621C18.9808 0.565476 18.9979 0.559817 19.0154 0.560001L23.5224 0.562501C23.5399 0.562317 23.557 0.567976 23.5715 0.57871C23.5859 0.589443 23.597 0.604732 23.6031 0.622501L28.1724 14.315C28.1772 14.3291 28.1789 14.3442 28.1771 14.3591C28.1754 14.374 28.1703 14.3882 28.1624 14.4006C28.1544 14.4129 28.1438 14.4229 28.1315 14.4298C28.1192 14.4366 28.1055 14.4401 28.0916 14.44H24.4547C24.4366 14.4398 24.419 14.4334 24.4045 14.4218C24.39 14.4101 24.3793 14.3937 24.3739 14.375L23.5731 11.6275C23.5678 11.6088 23.557 11.5924 23.5425 11.5807C23.528 11.5691 23.5105 11.5627 23.4924 11.5625L18.8539 11.565C18.8358 11.5652 18.8183 11.5716 18.8037 11.5832C18.7892 11.5949 18.7785 11.6113 18.7731 11.63ZM22.567 8.695C22.6578 8.695 22.6893 8.6475 22.6616 8.5525L21.2539 3.71C21.2262 3.61667 21.1985 3.61583 21.1708 3.7075L19.7285 8.505C19.6947 8.62167 19.7339 8.68 19.8462 8.68L22.567 8.695Z" fill="var(--fill-0, white)"/>
<path id="Vector_4" d="M37.8692 8.21496C39.1661 8.47746 39.9576 9.34496 40.2599 10.7925C40.4846 11.8708 40.7069 13.0316 40.9269 14.275C40.9469 14.3833 40.9061 14.4375 40.8046 14.4375L37.3753 14.4425C37.2769 14.4425 37.2199 14.3891 37.2046 14.2825C37.0169 12.8808 36.8284 11.6916 36.6392 10.715C36.443 9.69996 35.6607 9.32996 34.7584 9.35996C34.1184 9.38163 33.513 9.38496 32.9423 9.36996C32.9272 9.36963 32.9123 9.37255 32.8983 9.37856C32.8843 9.38457 32.8715 9.39354 32.8608 9.40494C32.8501 9.41635 32.8415 9.42997 32.8357 9.445C32.8299 9.46003 32.8269 9.47616 32.8269 9.49246V14.3125C32.8269 14.3456 32.8147 14.3774 32.7931 14.4008C32.7714 14.4243 32.7421 14.4375 32.7115 14.4375L29.483 14.4425C29.403 14.4425 29.363 14.4 29.363 14.315L29.3653 0.634962C29.3653 0.617485 29.3716 0.600684 29.3828 0.588095C29.3939 0.575505 29.4092 0.568109 29.4253 0.567462C31.813 0.550795 34.1769 0.554128 36.5169 0.577462C38.8661 0.599962 40.9223 2.15996 40.5646 4.98996C40.3707 6.51329 39.4699 7.53246 37.8623 8.04746C37.653 8.11413 37.6553 8.16996 37.8692 8.21496ZM32.8246 3.60746L32.8292 6.52246C32.8292 6.55097 32.8396 6.57832 32.8582 6.59848C32.8768 6.61864 32.9021 6.62996 32.9284 6.62996L35.3815 6.62496C35.5993 6.62457 35.8148 6.5846 36.0159 6.50735C36.2169 6.4301 36.3995 6.31707 36.5532 6.17474C36.7069 6.03241 36.8286 5.86356 36.9115 5.67785C36.9943 5.49215 37.0367 5.29322 37.0361 5.09246V5.01746C37.0349 4.61269 36.8595 4.225 36.5484 3.93953C36.2373 3.65406 35.8159 3.49417 35.3769 3.49496L32.9238 3.49996C32.8975 3.49996 32.8722 3.51129 32.8536 3.53145C32.835 3.55161 32.8246 3.57895 32.8246 3.60746Z" fill="var(--fill-0, white)"/>
<path id="Vector_5" d="M50.7346 9.24248C50.75 9.16248 50.7676 9.08331 50.7876 9.00498C51.5107 6.12665 52.3115 3.33915 53.19 0.642481C53.1972 0.619259 53.2111 0.599065 53.2297 0.584721C53.2483 0.570377 53.2707 0.562602 53.2938 0.562481H58.3846C58.3999 0.562481 58.4145 0.569066 58.4254 0.580787C58.4362 0.592508 58.4423 0.608405 58.4423 0.624981V14.375C58.4423 14.3916 58.4362 14.4075 58.4254 14.4192C58.4145 14.4309 58.3999 14.4375 58.3846 14.4375L55.0407 14.4425C55.0248 14.4425 55.0095 14.4356 54.9983 14.4234C54.987 14.4113 54.9807 14.3947 54.9807 14.3775L54.9784 4.23998C54.9784 4.03165 54.9499 4.02665 54.893 4.22498L51.9484 14.385C51.9435 14.4011 51.9342 14.4151 51.9217 14.425C51.9093 14.4349 51.8944 14.4402 51.8792 14.44H49.2069C49.1176 14.44 49.0599 14.3941 49.0338 14.3025L46.1376 4.28748C46.0715 4.05581 46.0384 4.06081 46.0384 4.30248V14.375C46.0384 14.3922 46.0323 14.4088 46.0215 14.4209C46.0107 14.4331 45.996 14.44 45.9807 14.44H42.6369C42.621 14.44 42.6057 14.4331 42.5944 14.4209C42.5832 14.4088 42.5769 14.3922 42.5769 14.375V0.719981C42.5769 0.614981 42.6246 0.562481 42.7199 0.562481H47.9515C48.0361 0.562481 48.0907 0.605814 48.1153 0.692481L50.55 9.24998C50.6207 9.50165 50.6823 9.49915 50.7346 9.24248Z" fill="var(--fill-0, white)"/>
<path id="Vector_6" d="M63.6369 3.66248L63.6346 5.83748C63.6346 5.864 63.6443 5.88944 63.6616 5.90819C63.6789 5.92694 63.7024 5.93748 63.7269 5.93748H68.6215C68.646 5.93748 68.6695 5.94802 68.6868 5.96677C68.7041 5.98552 68.7138 6.01096 68.7138 6.03748L68.7161 8.64748C68.7161 8.674 68.7064 8.69944 68.6891 8.71819C68.6718 8.73694 68.6483 8.74748 68.6238 8.74748L63.7269 8.74998C63.7024 8.74998 63.6789 8.76052 63.6616 8.77927C63.6443 8.79802 63.6346 8.82346 63.6346 8.84998L63.6369 11.3375C63.6369 11.364 63.6466 11.3894 63.6639 11.4082C63.6813 11.4269 63.7047 11.4375 63.7292 11.4375H70.0615C70.086 11.4375 70.1095 11.448 70.1268 11.4668C70.1441 11.4855 70.1538 11.511 70.1538 11.5375L70.1515 14.34C70.1515 14.3665 70.1418 14.3919 70.1245 14.4107C70.1072 14.4294 70.0837 14.44 70.0592 14.44H60.3231C60.2986 14.44 60.2751 14.4294 60.2578 14.4107C60.2405 14.3919 60.2307 14.3665 60.2307 14.34V0.662481C60.2307 0.635959 60.2405 0.610524 60.2578 0.59177C60.2751 0.573017 60.2986 0.562481 60.3231 0.562481H70.0615C70.086 0.562481 70.1095 0.573017 70.1268 0.59177C70.1441 0.610524 70.1538 0.635959 70.1538 0.662481V3.46248C70.1538 3.489 70.1441 3.51444 70.1268 3.53319C70.1095 3.55195 70.086 3.56248 70.0615 3.56248H63.7292C63.7047 3.56248 63.6813 3.57302 63.6639 3.59177C63.6466 3.61052 63.6369 3.63596 63.6369 3.66248Z" fill="var(--fill-0, white)"/>
<path id="Vector_7" d="M81.4039 8.3875V0.687497C81.4039 0.654345 81.416 0.622551 81.4377 0.599109C81.4593 0.575667 81.4887 0.562497 81.5193 0.562497H84.75C84.7653 0.562497 84.78 0.569082 84.7908 0.580803C84.8017 0.592524 84.8077 0.608421 84.8077 0.624997V14.3125C84.8077 14.3456 84.7956 14.3774 84.7739 14.4009C84.7523 14.4243 84.7229 14.4375 84.6923 14.4375L81.4131 14.44C81.33 14.44 81.2662 14.4025 81.2216 14.3275L75.3923 4.58C75.3231 4.46166 75.2885 4.4725 75.2885 4.6125V14.375C75.2885 14.4167 75.2693 14.4375 75.2308 14.4375L72.06 14.44C72.0288 14.44 71.9989 14.4268 71.9768 14.4034C71.9547 14.3799 71.9423 14.3481 71.9423 14.315V0.624997C71.9423 0.608421 71.9484 0.592524 71.9592 0.580803C71.9701 0.569082 71.9847 0.562497 72 0.562497L76.4008 0.559997C76.4447 0.559935 76.488 0.572043 76.5267 0.595203C76.5655 0.618362 76.5983 0.651825 76.6223 0.692497L81.2747 8.4275C81.3608 8.57083 81.4039 8.5575 81.4039 8.3875Z" fill="var(--fill-0, white)"/>
<path id="Vector_8" d="M90.0877 3.43748L86.1047 3.43998C86.082 3.43998 86.0603 3.43024 86.0443 3.41289C86.0283 3.39554 86.0193 3.37201 86.0193 3.34748V0.654981C86.0193 0.642834 86.0215 0.630805 86.0258 0.619583C86.0301 0.60836 86.0364 0.598163 86.0443 0.589574C86.0522 0.580984 86.0616 0.574171 86.072 0.569522C86.0823 0.564874 86.0935 0.562481 86.1047 0.562481H97.7608C97.772 0.562481 97.7831 0.564874 97.7935 0.569522C97.8039 0.574171 97.8133 0.580984 97.8212 0.589574C97.8291 0.598163 97.8354 0.60836 97.8397 0.619583C97.844 0.630805 97.8462 0.642834 97.8462 0.654981V3.34748C97.8462 3.37201 97.8372 3.39554 97.8212 3.41289C97.8052 3.43024 97.7835 3.43998 97.7608 3.43998H93.7777C93.7551 3.43998 93.7334 3.44973 93.7174 3.46707C93.7014 3.48442 93.6924 3.50795 93.6924 3.53248V14.3475C93.6924 14.372 93.6834 14.3955 93.6673 14.4129C93.6513 14.4302 93.6296 14.44 93.607 14.44H90.2585C90.2359 14.44 90.2141 14.4302 90.1981 14.4129C90.1821 14.3955 90.1731 14.372 90.1731 14.3475V3.52998C90.1731 3.50545 90.1641 3.48192 90.1481 3.46457C90.1321 3.44723 90.1104 3.43748 90.0877 3.43748Z" fill="var(--fill-0, white)"/>
<path id="Vector_9" d="M122.024 8.19497C122.225 8.25997 122.469 8.25997 122.663 8.34747C123.666 8.79414 124.286 9.62414 124.523 10.8375C124.748 11.9858 124.964 13.1425 125.172 14.3075C125.187 14.3941 125.154 14.4375 125.072 14.4375L121.613 14.4425C121.522 14.4425 121.47 14.3941 121.456 14.2975C121.281 13.0758 121.104 11.945 120.925 10.905C120.753 9.9083 120.208 9.4008 119.292 9.38247C118.616 9.36747 117.911 9.3658 117.175 9.37747C117.097 9.37914 117.058 9.42164 117.058 9.50497V14.3125C117.058 14.3456 117.046 14.3774 117.024 14.4009C117.002 14.4243 116.973 14.4375 116.942 14.4375L113.656 14.4425C113.64 14.4425 113.624 14.4354 113.612 14.4227C113.6 14.41 113.594 14.3929 113.594 14.375L113.596 0.634971C113.596 0.615743 113.603 0.597303 113.616 0.583706C113.628 0.57011 113.645 0.562471 113.663 0.562471C115.952 0.555805 118.285 0.559971 120.662 0.574971C122.917 0.589971 124.987 1.92997 124.842 4.62497C124.745 6.42497 123.63 7.65747 122.028 8.07497C121.892 8.10997 121.89 8.14997 122.024 8.19497ZM117.055 3.60497V6.51997C117.055 6.53409 117.058 6.54807 117.063 6.56111C117.068 6.57415 117.075 6.586 117.084 6.59598C117.094 6.60597 117.105 6.61389 117.117 6.61929C117.129 6.62469 117.142 6.62747 117.155 6.62747H119.631C119.847 6.62747 120.06 6.58841 120.26 6.51253C120.459 6.43664 120.64 6.32542 120.793 6.1852C120.945 6.04499 121.066 5.87852 121.149 5.69532C121.231 5.51212 121.274 5.31577 121.274 5.11747V5.00747C121.274 4.60699 121.101 4.22292 120.793 3.93974C120.484 3.65656 120.067 3.49747 119.631 3.49747H117.155C117.128 3.49747 117.103 3.5088 117.084 3.52896C117.066 3.54912 117.055 3.57646 117.055 3.60497Z" fill="var(--fill-0, white)"/>
<path id="Vector_10" d="M131.721 5.44247L134.107 0.597473C134.113 0.585025 134.123 0.574709 134.134 0.567654C134.145 0.560599 134.158 0.557077 134.171 0.557473L137.799 0.569973C137.812 0.569772 137.825 0.573272 137.836 0.58011C137.847 0.586947 137.856 0.596874 137.862 0.60886C137.869 0.620847 137.872 0.634457 137.872 0.648279C137.872 0.662102 137.868 0.675634 137.862 0.687473L133.338 9.04747C133.332 9.05892 133.329 9.07183 133.329 9.08497L133.332 14.3575C133.332 14.378 133.324 14.3977 133.311 14.4123C133.297 14.4268 133.279 14.435 133.26 14.435L129.879 14.44C129.86 14.44 129.842 14.4318 129.829 14.4173C129.815 14.4027 129.808 14.383 129.808 14.3625V9.04997C129.808 9.03683 129.804 9.02392 129.798 9.01247L125.243 0.672473C125.236 0.660634 125.233 0.647102 125.233 0.633279C125.233 0.619457 125.236 0.605847 125.242 0.59386C125.249 0.581874 125.258 0.571947 125.269 0.56511C125.28 0.558272 125.293 0.554772 125.305 0.554973L129.09 0.567473C129.103 0.567531 129.115 0.571268 129.126 0.5783C129.137 0.585331 129.146 0.595402 129.152 0.607473L131.594 5.44497C131.6 5.45744 131.609 5.4678 131.621 5.47494C131.632 5.48208 131.645 5.48572 131.658 5.48547C131.671 5.48521 131.684 5.48106 131.695 5.47348C131.706 5.4659 131.715 5.45518 131.721 5.44247Z" fill="var(--fill-0, white)"/>
</g>
<defs>
<clipPath id="clip0_0_1047">
<rect width="138" height="15" fill="white"/>
</clipPath>
</defs>
</svg>
